<svg width="27" height="27" viewBox="0 0 27 27" fill="none" xmlns="http://www.w3.org/2000/svg">
<g id="ic_1">
<path id="Vector" d="M10.7353 6.00031C10.5406 6.00599 10.3556 6.08724 10.2197 6.22687L3.2197 13.2269C3.07911 13.3675 3.00012 13.5583 3.00012 13.7571C3.00012 13.956 3.07911 14.1468 3.2197 14.2874L10.2197 21.2874C10.2888 21.3594 10.3716 21.4169 10.4632 21.4565C10.5548 21.496 10.6534 21.517 10.7531 21.518C10.8529 21.519 10.9519 21.5001 11.0443 21.4624C11.1367 21.4246 11.2206 21.3689 11.2911 21.2983C11.3617 21.2278 11.4175 21.1438 11.4552 21.0514C11.4929 20.9591 11.5118 20.8601 11.5108 20.7603C11.5098 20.6605 11.4889 20.562 11.4493 20.4704C11.4097 20.3788 11.3522 20.296 11.2803 20.2269L5.56052 14.5071H20.25C20.3494 14.5086 20.448 14.4902 20.5403 14.4531C20.6325 14.4161 20.7164 14.361 20.7872 14.2913C20.858 14.2215 20.9142 14.1383 20.9525 14.0466C20.9909 13.9549 21.0107 13.8565 21.0107 13.7571C21.0107 13.6578 20.9909 13.5594 20.9525 13.4677C20.9142 13.376 20.858 13.2928 20.7872 13.223C20.7164 13.1532 20.6325 13.0982 20.5403 13.0612C20.448 13.0241 20.3494 13.0057 20.25 13.0071H5.56052L11.2803 7.28742C11.3885 7.18204 11.4623 7.04646 11.4922 6.8984C11.5221 6.75035 11.5065 6.59673 11.4476 6.45765C11.3888 6.31856 11.2893 6.20049 11.1622 6.11889C11.0351 6.03729 10.8863 5.99596 10.7353 6.00031Z" fill="#030027"/>
</g>
</svg>
