<svg width="21" height="21" viewBox="0 0 21 21" fill="none" xmlns="http://www.w3.org/2000/svg">
<path d="M8.14784 17.1375C8.48508 17.564 8.91482 17.9082 9.40459 18.1442C9.89436 18.3803 10.4314 18.5019 10.975 18.5C11.5187 18.5019 12.0557 18.3803 12.5455 18.1442C13.0353 17.9082 13.465 17.564 13.8022 17.1375C11.926 17.3915 10.0241 17.3915 8.14784 17.1375ZM16.2063 8.42499V8.97059C16.2063 9.62547 16.3923 10.2656 16.7426 10.8104L17.6013 12.1458C18.3848 13.3656 17.7865 15.0233 16.4233 15.4085C12.8612 16.4173 9.08891 16.4173 5.5268 15.4085C4.16357 15.0233 3.56527 13.3656 4.3488 12.1458L5.2075 10.8104C5.55874 10.2611 5.74512 9.62261 5.74457 8.97059V8.42499C5.74457 5.42885 8.08662 3 10.975 3C13.8635 3 16.2063 5.42885 16.2063 8.42499Z" fill="#767676"/>
<circle cx="16.5" cy="4.5" r="2.3" fill="#34558B" stroke="white" stroke-width="0.4"/>
</svg>
