<svg width="58" height="58" viewBox="0 0 58 58" fill="none" xmlns="http://www.w3.org/2000/svg">
<g id="icons8_Checkmark 1">
<path id="Vector" d="M28.8495 4.96558C15.5933 4.96558 4.80859 15.7503 4.80859 29.0065C4.80859 42.2626 15.5933 53.0474 28.8495 53.0474C42.1057 53.0474 52.8904 42.2626 52.8904 29.0065C52.8904 25.1491 51.9553 21.5143 50.3337 18.2796L47.6362 20.9772C48.694 23.4426 49.2843 26.1564 49.2843 29.0065C49.2843 40.2745 40.1175 49.4412 28.8495 49.4412C17.5815 49.4412 8.41473 40.2745 8.41473 29.0065C8.41473 17.7385 17.5815 8.57171 28.8495 8.57171C34.1938 8.57171 39.0495 10.6503 42.6941 14.0208L45.2438 11.4712C40.9441 7.44793 35.1879 4.96558 28.8495 4.96558ZM47.446 13.3635C46.9777 13.3771 46.5331 13.5724 46.2064 13.9081L25.8444 34.2701L21.109 29.5347C20.9428 29.3617 20.7438 29.2235 20.5236 29.1284C20.3034 29.0332 20.0664 28.9829 19.8266 28.9805C19.5867 28.978 19.3487 29.0235 19.1266 29.1142C18.9045 29.2048 18.7028 29.3389 18.5331 29.5085C18.3635 29.6782 18.2294 29.8799 18.1388 30.102C18.0481 30.3241 18.0026 30.5621 18.0051 30.802C18.0075 31.0418 18.0578 31.2788 18.153 31.499C18.2481 31.7192 18.3863 31.9182 18.5593 32.0844L24.5696 38.0946C24.9077 38.4326 25.3663 38.6225 25.8444 38.6225C26.3225 38.6225 26.7811 38.4326 27.1192 38.0946L48.756 16.4578C49.0161 16.2044 49.1937 15.8785 49.2655 15.5226C49.3373 15.1666 49.3 14.7973 49.1585 14.4629C49.0169 14.1286 48.7777 13.8447 48.4721 13.6485C48.1666 13.4524 47.8089 13.353 47.446 13.3635Z" fill="#5B5B5B"/>
</g>
</svg>
