<svg width="21" height="21" viewBox="0 0 21 21" fill="none" xmlns="http://www.w3.org/2000/svg">
<path d="M17.5 3.5H3.5C2.5375 3.5 1.75875 4.2875 1.75875 5.25L1.75 15.75C1.75 16.7125 2.5375 17.5 3.5 17.5H17.5C18.4625 17.5 19.25 16.7125 19.25 15.75V5.25C19.25 4.2875 18.4625 3.5 17.5 3.5ZM17.15 7.21875L10.9637 11.0863C10.6838 11.2613 10.3162 11.2613 10.0363 11.0863L3.85 7.21875C3.76226 7.1695 3.68543 7.10295 3.62415 7.02315C3.56288 6.94334 3.51843 6.85193 3.4935 6.75445C3.46858 6.65697 3.46369 6.55544 3.47914 6.45602C3.49458 6.35659 3.53004 6.26134 3.58337 6.17601C3.6367 6.09069 3.70678 6.01707 3.78939 5.95962C3.87199 5.90217 3.96539 5.86207 4.06393 5.84176C4.16248 5.82145 4.26412 5.82135 4.36271 5.84145C4.4613 5.86156 4.55478 5.90147 4.6375 5.95875L10.5 9.625L16.3625 5.95875C16.4452 5.90147 16.5387 5.86156 16.6373 5.84145C16.7359 5.82135 16.8375 5.82145 16.9361 5.84176C17.0346 5.86207 17.128 5.90217 17.2106 5.95962C17.2932 6.01707 17.3633 6.09069 17.4166 6.17601C17.47 6.26134 17.5054 6.35659 17.5209 6.45602C17.5363 6.55544 17.5314 6.65697 17.5065 6.75445C17.4816 6.85193 17.4371 6.94334 17.3758 7.02315C17.3146 7.10295 17.2377 7.1695 17.15 7.21875Z" fill="#151E3F"/>
</svg>
