<svg width="21" height="21" viewBox="0 0 21 21" fill="none" xmlns="http://www.w3.org/2000/svg">
<path d="M15.3766 19.25H16.6782C17.3368 19.25 17.8778 18.7403 17.9563 18.0974L19.25 5.17557H15.3295V2H13.7849V5.17557H9.88796L10.1232 7.01034C11.464 7.37886 12.7185 8.04534 13.4713 8.78239C14.6003 9.8958 15.3766 11.0484 15.3766 12.9302V19.25ZM2 18.4659V17.6818H13.7849V18.4659C13.7849 18.8893 13.432 19.25 12.9773 19.25H2.78409C2.35284 19.25 2 18.8893 2 18.4659ZM13.7849 12.9773C13.7849 6.70455 2 6.70455 2 12.9773H13.7849ZM2 14.5455H13.7614V16.1136H2V14.5455Z" fill="#767676"/>
</svg>
