<svg width="26" height="25" viewBox="0 0 26 25" fill="none" xmlns="http://www.w3.org/2000/svg">
<g id="Component 2">
<circle id="Ellipse 109" cx="18.9599" cy="7.15048" r="6.32675" fill="#34558B"/>
<path id="Subtract" fill-rule="evenodd" clip-rule="evenodd" d="M14.5003 1.37072C13.3381 0.948171 12.0383 0.743164 10.6865 0.743164C8.42278 0.743164 6.30509 1.31799 4.7351 2.52649C3.1425 3.75239 2.16968 5.59034 2.16968 7.96215C2.16968 10.3299 1.3013 13.0422 0.36899 15.2566C-0.58929 17.5327 0.982757 20.3723 3.59061 20.3723H6.06308V20.9401C6.06308 22.2368 6.60012 23.2636 7.48815 23.9472C8.35358 24.6133 9.49792 24.9146 10.6865 24.9146C11.875 24.9146 13.0194 24.6133 13.8848 23.9472C14.7728 23.2636 15.3099 22.2368 15.3099 20.9401V20.3723H17.7823C20.3902 20.3723 21.9622 17.5327 21.0039 15.2566C20.8688 14.9356 20.735 14.6041 20.6049 14.2647C20.1244 14.3754 19.6258 14.4386 19.1142 14.4492C19.2913 14.9274 19.4749 15.3876 19.6583 15.8231C20.2658 17.266 19.2095 18.9123 17.7823 18.9123H14.5799H6.79309H3.59061C2.16338 18.9123 1.10714 17.266 1.71461 15.8231C2.66802 13.5586 3.6297 10.6277 3.6297 7.96215C3.6297 6.03344 4.4 4.6269 5.62566 3.68345C6.87393 2.72259 8.64962 2.20318 10.6865 2.20318C11.6254 2.20318 12.5089 2.31356 13.3108 2.52668C13.6621 2.09792 14.0614 1.70988 14.5003 1.37072ZM7.5231 20.3723H13.8498V20.9401C13.8498 21.7937 13.5153 22.3891 12.9942 22.7902C12.4505 23.2087 11.6482 23.4546 10.6865 23.4546C9.72477 23.4546 8.92242 23.2087 8.37872 22.7902C7.85762 22.3891 7.5231 21.7937 7.5231 20.9401V20.3723Z" fill="#34558B"/>
<path id="1" d="M18.6533 9.79736V5.70201L17.6532 6.11812V5.2421L19.0183 4.6873H19.6534V9.79736H18.6533Z" fill="white"/>
</g>
</svg>
