<svg width="33" height="33" viewBox="0 0 33 33" fill="none" xmlns="http://www.w3.org/2000/svg">
<path d="M16.2605 3.17676C9.90917 3.17676 4.74219 8.34374 4.74219 14.6951C4.74219 17.4297 5.72395 20.0836 7.51539 22.1806C7.72001 22.413 12.5475 27.8984 14.1601 29.4358C14.7489 29.9975 15.5044 30.2787 16.2605 30.2787C17.0166 30.2787 17.7721 29.9975 18.3616 29.4358C20.2364 27.6478 24.8145 22.3995 25.0151 22.1691C26.7971 20.0836 27.7788 17.4297 27.7788 14.6951C27.7788 8.34374 22.6118 3.17676 16.2605 3.17676ZM16.2605 18.0828C14.3898 18.0828 12.8728 16.5658 12.8728 14.6951C12.8728 12.8244 14.3898 11.3073 16.2605 11.3073C18.1312 11.3073 19.6482 12.8244 19.6482 14.6951C19.6482 16.5658 18.1312 18.0828 16.2605 18.0828Z" fill="#34558B"/>
</svg>
