<svg width="35" height="35" viewBox="0 0 35 35" fill="none" xmlns="http://www.w3.org/2000/svg">
<g id="icons8_restaurant_menu 1">
<path id="Vector" opacity="0.35" d="M27.7084 5.83325H21.8445C19.4455 5.83325 17.5001 7.77867 17.5001 10.1776C17.5001 7.77867 15.5547 5.83325 13.1557 5.83325H7.29175C4.87529 5.83325 2.91675 7.79179 2.91675 10.2083V24.7916C2.91675 27.208 4.87529 29.1666 7.29175 29.1666H14.9874C15.492 30.0343 16.4224 30.6249 17.5001 30.6249C18.5778 30.6249 19.5067 30.0343 20.0128 29.1666H27.7084C30.1249 29.1666 32.0834 27.208 32.0834 24.7916V10.2083C32.0834 7.79179 30.1249 5.83325 27.7084 5.83325Z" fill="#34558B"/>
<path id="Vector_2" d="M11.6667 23.3332C11.6667 23.1364 11.6667 19.2514 11.6667 12.1172H8.75C8.75 19.2514 8.75 23.1364 8.75 23.3332C8.75 24.1382 9.40333 24.7916 10.2083 24.7916C11.0133 24.7916 11.6667 24.1382 11.6667 23.3332Z" fill="#34558B"/>
<path id="Vector_3" d="M6.5625 15.1797C6.5625 17.5962 8.19437 18.9583 10.2083 18.9583C12.2223 18.9583 13.8542 17.5962 13.8542 15.1797C13.8542 12.7633 12.2223 10.2083 10.2083 10.2083C8.19437 10.2083 6.5625 12.7633 6.5625 15.1797Z" fill="#34558B"/>
<path id="Vector_4" d="M27.7084 13.125C27.4372 13.125 22.1463 13.125 21.8751 13.125C21.0701 13.125 20.4167 13.7783 20.4167 14.5833C20.4167 15.3883 21.0701 16.0417 21.8751 16.0417C22.1463 16.0417 27.4372 16.0417 27.7084 16.0417C28.5134 16.0417 29.1667 15.3883 29.1667 14.5833C29.1667 13.7783 28.5134 13.125 27.7084 13.125Z" fill="#34558B"/>
<path id="Vector_5" d="M27.7084 18.9583C27.4372 18.9583 22.1463 18.9583 21.8751 18.9583C21.0701 18.9583 20.4167 19.6116 20.4167 20.4166C20.4167 21.2216 21.0701 21.8749 21.8751 21.8749C22.1463 21.8749 27.4372 21.8749 27.7084 21.8749C28.5134 21.8749 29.1667 21.2216 29.1667 20.4166C29.1667 19.6116 28.5134 18.9583 27.7084 18.9583Z" fill="#34558B"/>
</g>
</svg>
