<svg width="28" height="28" viewBox="0 0 28 28" fill="none" xmlns="http://www.w3.org/2000/svg">
<g id="icons8_location 4">
<path id="Vector" d="M6.84589 2.75916L4.13163 5.47342C2.64316 6.96189 2.31987 9.27878 3.38403 11.0973C4.56941 13.1313 5.53927 14.6332 9.60057 18.6878C13.6551 22.7491 14.7597 23.3013 16.76 24.4733C18.5853 25.5374 20.8954 25.2141 22.3771 23.7257L25.0981 21.0114L19.8447 15.7647L17.7097 17.8998C17.4537 17.7853 17.0698 17.5832 16.6253 17.3003C15.7093 16.7144 14.5374 15.8186 13.507 14.7814C12.4697 13.7509 11.4595 12.4645 10.759 11.4273C10.4155 10.9154 10.1394 10.4507 9.9912 10.1476C9.98447 10.1341 9.98447 10.1341 9.97773 10.1207L12.0926 8.00583L6.84589 2.75916ZM6.84589 5.19728L9.65445 8.00583L8.42191 9.2451C8.16598 9.50104 8.13904 9.78391 8.14577 9.94556C8.14577 10.1005 8.17271 10.2082 8.19966 10.3093C8.26027 10.518 8.34109 10.6999 8.44212 10.9154C8.65091 11.333 8.95399 11.8314 9.33116 12.3971C10.0855 13.5152 11.1497 14.8689 12.2812 16.0072C13.4194 17.1387 14.6721 18.0951 15.7026 18.7484C16.2145 19.0784 16.6657 19.3276 17.0496 19.496C17.245 19.5835 17.4201 19.6509 17.6289 19.6913C17.7299 19.7115 17.8444 19.725 17.9993 19.7115C18.1542 19.7048 18.3967 19.6509 18.6122 19.4354L19.8447 18.2028L22.66 21.0114L21.1581 22.5133C20.2219 23.4495 18.7738 23.6516 17.6289 22.9848C15.5948 21.7927 14.8203 21.4761 10.8129 17.4754C6.81222 13.468 6.04441 12.2355 4.87249 10.2284C4.20571 9.08346 4.40777 7.6354 5.34395 6.69922L6.84589 5.19728Z" fill="#34558B"/>
</g>
</svg>
