<svg width="131" height="38" viewBox="0 0 131 38" fill="none" xmlns="http://www.w3.org/2000/svg">
<path d="M129.917 33.5302C129.917 35.5415 128.254 37.1707 126.197 37.1707H4.45067C2.39455 37.1707 0.725586 35.5415 0.725586 33.5302V4.49884C0.725586 2.48851 2.39455 0.853638 4.45067 0.853638H126.196C128.254 0.853638 129.916 2.48851 129.916 4.49884L129.917 33.5302Z" fill="#151E3F"/>
<path d="M125.804 0.897326C128.044 0.897326 129.867 2.6747 129.867 4.85898V33.1649C129.867 35.3492 128.044 37.1266 125.804 37.1266H4.83862C2.59834 37.1266 0.775389 35.3492 0.775389 33.1649V4.85898C0.775389 2.6747 2.59834 0.897326 4.83862 0.897326H125.804ZM125.804 0.141322H4.83862C2.17859 0.141322 0 2.26545 0 4.85898V33.1649C0 35.7584 2.17859 37.8826 4.83862 37.8826H125.804C128.464 37.8826 130.643 35.7584 130.643 33.1649V4.85898C130.643 2.26545 128.464 0.141322 125.804 0.141322Z" fill="#A6A6A6"/>
<path d="M29.1555 18.8082C29.1274 15.7672 31.7093 14.2878 31.8274 14.2189C30.3651 12.1403 28.0987 11.8563 27.3023 11.8336C25.3988 11.6383 23.5523 12.9442 22.5827 12.9442C21.5937 12.9442 20.1005 11.8525 18.4911 11.8846C16.4202 11.9157 14.4828 13.0847 13.4203 14.9001C11.2274 18.6016 12.8629 24.041 14.9638 27.033C16.0147 28.4983 17.2428 30.1344 18.8502 30.0768C20.4227 30.0136 21.0101 29.0993 22.9078 29.0993C24.7881 29.0993 25.3397 30.0768 26.9791 30.04C28.6668 30.0136 29.7293 28.5681 30.7435 27.0896C31.958 25.4101 32.4457 23.7561 32.4651 23.6712C32.4254 23.658 29.1874 22.4531 29.1555 18.8082Z" fill="white"/>
<path d="M26.0587 9.86542C26.9045 8.83414 27.4832 7.43111 27.3226 6.00732C26.0984 6.06016 24.5675 6.83291 23.6859 7.84155C22.9059 8.73036 22.2091 10.1872 22.3891 11.5572C23.7643 11.6572 25.1762 10.8807 26.0587 9.86542Z" fill="white"/>
<path d="M51.9144 29.8663H49.7167L48.5128 26.1781H44.3284L43.1816 29.8663H41.042L45.1877 17.3098H47.7483L51.9144 29.8663ZM48.1499 24.6307L47.0612 21.3519C46.9461 21.0169 46.7303 20.2282 46.4119 18.9865H46.3732C46.2464 19.5205 46.0422 20.3093 45.7616 21.3519L44.6922 24.6307H48.1499Z" fill="white"/>
<path d="M62.5741 25.2279C62.5741 26.7678 62.1473 27.9849 61.2938 28.8785C60.5293 29.6739 59.5799 30.0711 58.4467 30.0711C57.2235 30.0711 56.3448 29.6427 55.8097 28.786H55.771V33.5556H53.7078V23.7928C53.7078 22.8248 53.6817 21.8312 53.6313 20.8122H55.4458L55.561 22.2473H55.5997C56.2878 21.166 57.3319 20.6263 58.7332 20.6263C59.8287 20.6263 60.7432 21.0481 61.4748 21.8926C62.2083 22.738 62.5741 23.8494 62.5741 25.2279ZM60.4722 25.3015C60.4722 24.4203 60.269 23.6938 59.8606 23.122C59.4145 22.5257 58.8154 22.2275 58.0645 22.2275C57.5555 22.2275 57.0929 22.3936 56.6797 22.721C56.2655 23.0512 55.9945 23.4824 55.8678 24.0165C55.8039 24.2655 55.772 24.4693 55.772 24.6297V26.1394C55.772 26.798 55.979 27.3537 56.3932 27.8076C56.8074 28.2614 57.3455 28.4878 58.0074 28.4878C58.7845 28.4878 59.3893 28.1954 59.8219 27.6122C60.2554 27.0282 60.4722 26.2583 60.4722 25.3015Z" fill="white"/>
<path d="M73.2557 25.2279C73.2557 26.7678 72.829 27.9849 71.9745 28.8785C71.2109 29.6739 70.2616 30.0711 69.1284 30.0711C67.9052 30.0711 67.0265 29.6427 66.4923 28.786H66.4536V33.5556H64.3904V23.7928C64.3904 22.8248 64.3643 21.8312 64.314 20.8122H66.1284L66.2436 22.2473H66.2823C66.9694 21.166 68.0136 20.6263 69.4158 20.6263C70.5103 20.6263 71.4248 21.0481 72.1583 21.8926C72.889 22.738 73.2557 23.8494 73.2557 25.2279ZM71.1538 25.3015C71.1538 24.4203 70.9496 23.6938 70.5413 23.122C70.0951 22.5257 69.4981 22.2275 68.7461 22.2275C68.2362 22.2275 67.7745 22.3936 67.3604 22.721C66.9462 23.0512 66.6762 23.4824 66.5494 24.0165C66.4865 24.2655 66.4536 24.4693 66.4536 24.6297V26.1394C66.4536 26.798 66.6607 27.3537 67.0729 27.8076C67.4871 28.2605 68.0252 28.4878 68.6891 28.4878C69.4661 28.4878 70.071 28.1954 70.5035 27.6122C70.9371 27.0282 71.1538 26.2583 71.1538 25.3015Z" fill="white"/>
<path d="M85.1985 26.3451C85.1985 27.4132 84.8182 28.2822 84.0547 28.953C83.2157 29.6861 82.0476 30.0522 80.5467 30.0522C79.1609 30.0522 78.0499 29.7918 77.209 29.27L77.687 27.5934C78.5928 28.1274 79.5867 28.3954 80.6696 28.3954C81.4467 28.3954 82.0515 28.2237 82.486 27.8821C82.9186 27.5406 83.1344 27.082 83.1344 26.5102C83.1344 26.0007 82.9563 25.5714 82.5992 25.2232C82.2441 24.8751 81.6508 24.5514 80.8225 24.2523C78.5677 23.4324 77.4412 22.2313 77.4412 20.6518C77.4412 19.6196 77.8361 18.7733 78.6267 18.1147C79.4144 17.4551 80.4654 17.1259 81.7795 17.1259C82.9515 17.1259 83.925 17.3249 84.7021 17.7222L84.1863 19.362C83.4605 18.9771 82.6399 18.7846 81.7215 18.7846C80.9957 18.7846 80.4286 18.9591 80.0222 19.3064C79.6786 19.6168 79.5064 19.9951 79.5064 20.4433C79.5064 20.9396 79.7028 21.35 80.0976 21.6727C80.4412 21.9709 81.0654 22.2936 81.9712 22.6417C83.0792 23.0767 83.8931 23.5853 84.4166 24.1684C84.9382 24.7496 85.1985 25.4771 85.1985 26.3451Z" fill="white"/>
<path d="M92.0196 22.3218H89.7455V26.7177C89.7455 27.8358 90.1461 28.3944 90.9493 28.3944C91.318 28.3944 91.6238 28.3632 91.8658 28.3009L91.9229 29.8285C91.5164 29.9767 90.9813 30.0512 90.3184 30.0512C89.5036 30.0512 88.8668 29.8087 88.4071 29.3247C87.9494 28.8397 87.7191 28.0264 87.7191 26.8838V22.3199H86.3643V20.8102H87.7191V19.1525L89.7455 18.5562V20.8102H92.0196V22.3218Z" fill="white"/>
<path d="M102.28 25.2647C102.28 26.6564 101.872 27.799 101.057 28.6925C100.203 29.6124 99.0683 30.071 97.6545 30.071C96.2919 30.071 95.2071 29.6304 94.3981 28.7491C93.5891 27.8679 93.1846 26.7554 93.1846 25.4147C93.1846 24.0116 93.6007 22.8624 94.4358 21.9689C95.269 21.0744 96.3935 20.6272 97.8074 20.6272C99.1699 20.6272 100.266 21.0678 101.094 21.95C101.885 22.8058 102.28 23.9107 102.28 25.2647ZM100.14 25.3298C100.14 24.4947 99.9567 23.7786 99.5861 23.1813C99.1535 22.4586 98.5351 22.0982 97.7338 22.0982C96.9045 22.0982 96.2745 22.4595 95.8419 23.1813C95.4713 23.7795 95.2884 24.507 95.2884 25.3675C95.2884 26.2025 95.4713 26.9187 95.8419 27.515C96.2881 28.2377 96.9113 28.5981 97.7155 28.5981C98.5032 28.5981 99.1216 28.2302 99.5677 27.4961C99.948 26.8875 100.14 26.1638 100.14 25.3298Z" fill="white"/>
<path d="M108.985 22.5813C108.781 22.5445 108.563 22.5257 108.335 22.5257C107.609 22.5257 107.048 22.7927 106.653 23.3277C106.31 23.7994 106.137 24.3957 106.137 25.1157V29.8663H104.075L104.095 23.6636C104.095 22.62 104.068 21.6699 104.017 20.8132H105.814L105.89 22.5455H105.947C106.164 21.9501 106.508 21.4708 106.978 21.1113C107.438 20.7877 107.934 20.6263 108.47 20.6263C108.66 20.6263 108.833 20.6396 108.985 20.6631V22.5813Z" fill="white"/>
<path d="M118.215 24.9109C118.215 25.2714 118.19 25.5752 118.139 25.8233H111.95C111.974 26.7178 112.273 27.4019 112.848 27.8736C113.369 28.2954 114.044 28.5067 114.872 28.5067C115.789 28.5067 116.625 28.3643 117.377 28.0784L117.7 29.4748C116.821 29.8484 115.784 30.0343 114.587 30.0343C113.147 30.0343 112.016 29.621 111.194 28.7955C110.373 27.9699 109.962 26.8612 109.962 25.4704C109.962 24.1052 110.344 22.9682 111.11 22.0615C111.911 21.0934 112.994 20.6094 114.356 20.6094C115.695 20.6094 116.708 21.0934 117.396 22.0615C117.941 22.8304 118.215 23.7815 118.215 24.9109ZM116.247 24.3892C116.261 23.7928 116.126 23.2777 115.847 22.8427C115.49 22.2832 114.941 22.0039 114.202 22.0039C113.528 22.0039 112.979 22.2766 112.56 22.8238C112.217 23.2588 112.013 23.7806 111.95 24.3882H116.247V24.3892Z" fill="white"/>
<path d="M47.4662 9.58485C47.4662 10.6954 47.1246 11.5314 46.4423 12.0928C45.8104 12.6108 44.9124 12.8702 43.7491 12.8702C43.1724 12.8702 42.6788 12.8457 42.2656 12.7966V6.72878C42.8046 6.64387 43.3853 6.60046 44.0124 6.60046C45.1204 6.60046 45.9556 6.8354 46.5188 7.30528C47.1497 7.83649 47.4662 8.59603 47.4662 9.58485ZM46.3968 9.61222C46.3968 8.8923 46.2014 8.34034 45.8104 7.95537C45.4194 7.57136 44.8485 7.37888 44.0966 7.37888C43.7772 7.37888 43.5053 7.39963 43.2798 7.44304V12.056C43.4046 12.0748 43.633 12.0833 43.965 12.0833C44.7411 12.0833 45.3401 11.8729 45.762 11.4521C46.1839 11.0313 46.3968 10.418 46.3968 9.61222Z" fill="white"/>
<path d="M53.136 10.5549C53.136 11.239 52.9356 11.7994 52.535 12.2391C52.115 12.6911 51.5586 12.9166 50.8637 12.9166C50.1941 12.9166 49.6609 12.7005 49.2631 12.2665C48.8664 11.8334 48.668 11.2871 48.668 10.6285C48.668 9.93972 48.8722 9.37455 49.2825 8.93581C49.6928 8.49706 50.2444 8.27722 50.9392 8.27722C51.6089 8.27722 52.1469 8.49329 52.5544 8.92637C52.9414 9.34719 53.136 9.89066 53.136 10.5549ZM52.084 10.587C52.084 10.1765 51.9931 9.82461 51.8121 9.53117C51.5992 9.17641 51.2963 8.99902 50.9024 8.99902C50.495 8.99902 50.1854 9.17641 49.9725 9.53117C49.7905 9.82461 49.7005 10.1822 49.7005 10.6049C49.7005 11.0153 49.7915 11.3673 49.9725 11.6607C50.1921 12.0155 50.4979 12.1929 50.8928 12.1929C51.2799 12.1929 51.5837 12.0127 51.8024 11.6513C51.9902 11.3522 52.084 10.9974 52.084 10.587Z" fill="white"/>
<path d="M60.7399 8.36768L59.3125 12.8155H58.3835L57.7922 10.8841C57.6422 10.4019 57.5203 9.92262 57.4255 9.44708H57.4071C57.319 9.93582 57.1971 10.4142 57.0403 10.8841L56.4123 12.8155H55.4726L54.1304 8.36768H55.1726L55.6884 10.4821C55.8132 10.9822 55.9158 11.4587 55.9981 11.9097H56.0165C56.0919 11.5379 56.2168 11.0643 56.3929 10.4916L57.0403 8.36862H57.8668L58.4871 10.4463C58.6371 10.953 58.759 11.4408 58.8529 11.9106H58.8809C58.9496 11.453 59.0532 10.9652 59.1906 10.4463L59.7441 8.36862H60.7399V8.36768Z" fill="white"/>
<path d="M65.9967 12.8155H64.9825V10.268C64.9825 9.48296 64.6767 9.09045 64.0632 9.09045C63.7622 9.09045 63.5193 9.19801 63.3306 9.41408C63.1438 9.63015 63.049 9.8849 63.049 10.1765V12.8146H62.0348V9.63864C62.0348 9.24802 62.0222 8.82437 61.998 8.36581H62.8893L62.9367 9.0612H62.9648C63.0829 8.84513 63.259 8.6668 63.4903 8.52433C63.7651 8.35827 64.0728 8.27429 64.4096 8.27429C64.8354 8.27429 65.1896 8.40827 65.4712 8.67718C65.8215 9.00647 65.9967 9.49805 65.9967 10.151V12.8155Z" fill="white"/>
<path d="M68.7935 12.8154H67.7803V6.32678H68.7935V12.8154Z" fill="white"/>
<path d="M74.7649 10.5549C74.7649 11.239 74.5645 11.7994 74.1639 12.2391C73.7439 12.6911 73.1865 12.9166 72.4926 12.9166C71.822 12.9166 71.2888 12.7005 70.892 12.2665C70.4953 11.8334 70.2969 11.2871 70.2969 10.6285C70.2969 9.93972 70.5011 9.37455 70.9114 8.93581C71.3217 8.49706 71.8733 8.27722 72.5672 8.27722C73.2378 8.27722 73.7749 8.49329 74.1833 8.92637C74.5703 9.34719 74.7649 9.89066 74.7649 10.5549ZM73.712 10.587C73.712 10.1765 73.621 9.82461 73.44 9.53117C73.2281 9.17641 72.9242 8.99902 72.5313 8.99902C72.123 8.99902 71.8133 9.17641 71.6014 9.53117C71.4194 9.82461 71.3294 10.1822 71.3294 10.6049C71.3294 11.0153 71.4204 11.3673 71.6014 11.6607C71.821 12.0155 72.1268 12.1929 72.5217 12.1929C72.9088 12.1929 73.2117 12.0127 73.4304 11.6513C73.6191 11.3522 73.712 10.9974 73.712 10.587Z" fill="white"/>
<path d="M79.6733 12.8156H78.7627L78.6872 12.3033H78.6591C78.3475 12.7118 77.9033 12.9166 77.3266 12.9166C76.8959 12.9166 76.5476 12.7816 76.2853 12.5137C76.0473 12.2702 75.9282 11.9674 75.9282 11.6079C75.9282 11.0644 76.1605 10.6502 76.6279 10.3634C77.0943 10.0765 77.7504 9.93595 78.5953 9.94255V9.85952C78.5953 9.27359 78.2798 8.9811 77.6479 8.9811C77.1979 8.9811 76.8011 9.09149 76.4585 9.31039L76.2524 8.66124C76.6763 8.40554 77.1998 8.27722 77.8172 8.27722C79.0095 8.27722 79.6075 8.89052 79.6075 10.1171V11.7551C79.6075 12.1995 79.6298 12.5533 79.6733 12.8156ZM78.6204 11.2871V10.6011C77.5017 10.5823 76.9424 10.8814 76.9424 11.4975C76.9424 11.7296 77.0063 11.9032 77.1369 12.0193C77.2676 12.1353 77.434 12.1929 77.6324 12.1929C77.855 12.1929 78.063 12.124 78.2527 11.9872C78.4433 11.8494 78.5604 11.6749 78.604 11.4607C78.6146 11.4126 78.6204 11.3541 78.6204 11.2871Z" fill="white"/>
<path d="M85.4348 12.8154H84.5348L84.4874 12.1012H84.4594C84.172 12.6447 83.6823 12.9164 82.9942 12.9164C82.4446 12.9164 81.9868 12.706 81.6239 12.2852C81.261 11.8644 81.0801 11.3181 81.0801 10.6472C81.0801 9.9273 81.2765 9.34419 81.6714 8.89885C82.0536 8.48369 82.522 8.27612 83.0794 8.27612C83.692 8.27612 84.1207 8.47709 84.3645 8.87998H84.3839V6.32678H85.399V11.6172C85.399 12.0502 85.4106 12.4494 85.4348 12.8154ZM84.3839 10.9397V10.1981C84.3839 10.0698 84.3742 9.96598 84.3558 9.88673C84.2987 9.64896 84.1758 9.44893 83.9891 9.28758C83.8003 9.12624 83.5729 9.0451 83.3107 9.0451C82.9323 9.0451 82.6362 9.19134 82.4184 9.48478C82.2026 9.77822 82.0933 10.1528 82.0933 10.6104C82.0933 11.0501 82.1968 11.4068 82.4049 11.6813C82.6246 11.9738 82.9207 12.1201 83.2913 12.1201C83.6242 12.1201 83.8903 11.9983 84.0926 11.754C84.2881 11.5285 84.3839 11.2567 84.3839 10.9397Z" fill="white"/>
<path d="M94.1086 10.5549C94.1086 11.239 93.9083 11.7994 93.5076 12.2391C93.0877 12.6911 92.5322 12.9166 91.8364 12.9166C91.1677 12.9166 90.6345 12.7005 90.2358 12.2665C89.839 11.8334 89.6406 11.2871 89.6406 10.6285C89.6406 9.93972 89.8448 9.37455 90.2551 8.93581C90.6654 8.49706 91.217 8.27722 91.9128 8.27722C92.5815 8.27722 93.1206 8.49329 93.527 8.92637C93.9141 9.34719 94.1086 9.89066 94.1086 10.5549ZM93.0577 10.587C93.0577 10.1765 92.9667 9.82461 92.7857 9.53117C92.5719 9.17641 92.2699 8.99902 91.8751 8.99902C91.4687 8.99902 91.159 9.17641 90.9451 9.53117C90.7632 9.82461 90.6732 10.1822 90.6732 10.6049C90.6732 11.0153 90.7642 11.3673 90.9451 11.6607C91.1648 12.0155 91.4706 12.1929 91.8654 12.1929C92.2525 12.1929 92.5573 12.0127 92.7761 11.6513C92.9628 11.3522 93.0577 10.9974 93.0577 10.587Z" fill="white"/>
<path d="M99.5626 12.8155H98.5494V10.268C98.5494 9.48296 98.2436 9.09045 97.6291 9.09045C97.3281 9.09045 97.0852 9.19801 96.8975 9.41408C96.7098 9.63015 96.6159 9.8849 96.6159 10.1765V12.8146H95.6007V9.63864C95.6007 9.24802 95.5891 8.82437 95.5649 8.36581H96.4552L96.5027 9.0612H96.5307C96.6498 8.84513 96.8259 8.6668 97.0562 8.52433C97.332 8.35827 97.6388 8.27429 97.9765 8.27429C98.4013 8.27429 98.7555 8.40827 99.0371 8.67718C99.3884 9.00647 99.5626 9.49805 99.5626 10.151V12.8155Z" fill="white"/>
<path d="M106.388 9.10827H105.271V11.269C105.271 11.8181 105.469 12.0927 105.862 12.0927C106.044 12.0927 106.195 12.0776 106.314 12.0464L106.34 12.7965C106.14 12.8701 105.877 12.9069 105.553 12.9069C105.152 12.9069 104.84 12.788 104.615 12.5503C104.388 12.3125 104.276 11.9124 104.276 11.351V9.10827H103.609V8.36759H104.276V7.55238L105.27 7.25989V8.36665H106.387V9.10827H106.388Z" fill="white"/>
<path d="M111.756 12.8154H110.741V10.2868C110.741 9.4895 110.435 9.09038 109.822 9.09038C109.352 9.09038 109.031 9.32155 108.855 9.78388C108.825 9.88106 108.807 9.99995 108.807 10.1396V12.8145H107.794V6.32678H108.807V9.00735H108.827C109.146 8.51955 109.604 8.27612 110.197 8.27612C110.617 8.27612 110.964 8.4101 111.24 8.67901C111.584 9.01396 111.756 9.51214 111.756 10.1707V12.8154Z" fill="white"/>
<path d="M117.295 10.3811C117.295 10.5585 117.281 10.7076 117.257 10.8293H114.216C114.229 11.269 114.374 11.6039 114.656 11.836C114.913 12.0436 115.245 12.1474 115.652 12.1474C116.102 12.1474 116.512 12.0776 116.882 11.937L117.04 12.6239C116.608 12.8069 116.099 12.8985 115.51 12.8985C114.803 12.8985 114.247 12.6956 113.844 12.2899C113.44 11.8842 113.239 11.3397 113.239 10.6566C113.239 9.98578 113.426 9.42721 113.802 8.98186C114.195 8.50632 114.727 8.26855 115.397 8.26855C116.053 8.26855 116.552 8.50632 116.889 8.98186C117.16 9.35928 117.295 9.82632 117.295 10.3811ZM116.327 10.1254C116.335 9.83199 116.268 9.57912 116.131 9.36588C115.955 9.09131 115.687 8.95356 115.324 8.95356C114.993 8.95356 114.723 9.08754 114.517 9.35645C114.348 9.57063 114.249 9.82632 114.216 10.1254H116.327Z" fill="white"/>
</svg>
