<svg width="131" height="39" viewBox="0 0 131 39" fill="none" xmlns="http://www.w3.org/2000/svg">
<path d="M125.631 38.4441H4.83197C2.17559 38.4441 0 36.32 0 33.7264V5.42051C0 2.82698 2.17559 0.702858 4.83197 0.702858H125.631C128.288 0.702858 130.463 2.82698 130.463 5.42051V33.7264C130.463 36.32 128.288 38.4441 125.631 38.4441Z" fill="#151E3F"/>
<path d="M125.631 1.45886C127.868 1.45886 129.689 3.23624 129.689 5.42051V33.7264C129.689 35.9107 127.868 37.6881 125.631 37.6881H4.83197C2.59477 37.6881 0.774323 35.9107 0.774323 33.7264V5.42051C0.774323 3.23624 2.59477 1.45886 4.83197 1.45886H125.631ZM125.631 0.702858H4.83197C2.17559 0.702858 0 2.82698 0 5.42051V33.7264C0 36.32 2.17559 38.4441 4.83197 38.4441H125.631C128.288 38.4441 130.463 36.32 130.463 33.7264V5.42051C130.463 2.82698 128.288 0.702858 125.631 0.702858Z" fill="#A6A6A6"/>
<path d="M45.8231 10.3683C45.8231 11.1561 45.5815 11.7871 45.1055 12.2577C44.5583 12.8155 43.8456 13.0962 42.9722 13.0962C42.1375 13.0962 41.4248 12.8108 40.8401 12.2482C40.2542 11.6774 39.9619 10.9768 39.9619 10.1383C39.9619 9.2997 40.2542 8.59913 40.8401 8.03301C41.4248 7.46572 42.1375 7.1803 42.9722 7.1803C43.3878 7.1803 43.784 7.26404 44.1621 7.41972C44.539 7.57658 44.8458 7.78888 45.0681 8.05071L44.5632 8.54842C44.1754 8.10142 43.6475 7.88087 42.9722 7.88087C42.3634 7.88087 41.8355 8.08845 41.3873 8.50714C40.944 8.92701 40.7217 9.47072 40.7217 10.1383C40.7217 10.8058 40.944 11.3542 41.3873 11.7741C41.8355 12.1881 42.3634 12.4004 42.9722 12.4004C43.6185 12.4004 44.1621 12.1881 44.5909 11.7694C44.8736 11.4922 45.0343 11.1101 45.0766 10.6218H42.9722V9.94013H45.7796C45.8134 10.0876 45.8231 10.2303 45.8231 10.3683Z" fill="white"/>
<path d="M50.2796 8.00473H47.6425V9.79744H50.0199V10.4791H47.6425V12.2719H50.2796V12.9665H46.896V7.31006H50.2796V8.00473Z" fill="white"/>
<path d="M53.4212 12.9664H52.6746V8.00461H51.0571V7.30994H55.0399V8.00461H53.4212V12.9664Z" fill="white"/>
<path d="M57.9229 12.9664V7.30994H58.6682V12.9664H57.9229Z" fill="white"/>
<path d="M61.971 12.9664H61.2305V8.00461H59.6069V7.30994H63.5945V8.00461H61.971V12.9664Z" fill="white"/>
<path d="M71.1345 12.2387C70.5631 12.8107 69.8552 13.0961 69.0109 13.0961C68.1616 13.0961 67.4538 12.8107 66.8824 12.2387C66.3122 11.6678 66.0283 10.9673 66.0283 10.1381C66.0283 9.30902 66.3122 8.60845 66.8824 8.03761C67.4538 7.46559 68.1616 7.18018 69.0109 7.18018C69.8504 7.18018 70.5583 7.46559 71.1297 8.04233C71.7047 8.61788 71.9886 9.31374 71.9886 10.1381C71.9886 10.9673 71.7047 11.6678 71.1345 12.2387ZM67.4344 11.7646C67.8645 12.188 68.3875 12.4003 69.0109 12.4003C69.6293 12.4003 70.1572 12.188 70.5825 11.7646C71.0113 11.3411 71.2287 10.7974 71.2287 10.1381C71.2287 9.47885 71.0113 8.93514 70.5825 8.51173C70.1572 8.08833 69.6293 7.87603 69.0109 7.87603C68.3875 7.87603 67.8645 8.08833 67.4344 8.51173C67.0056 8.93514 66.7881 9.47885 66.7881 10.1381C66.7881 10.7974 67.0056 11.3411 67.4344 11.7646Z" fill="white"/>
<path d="M73.0376 12.9665V7.31006H73.9436L76.7606 11.7093H76.7932L76.7606 10.6219V7.31006H77.506V12.9665H76.728L73.7781 8.3503H73.7455L73.7781 9.44244V12.9665H73.0376Z" fill="white"/>
<path d="M65.8441 21.2269C63.5743 21.2269 61.72 22.9135 61.72 25.2405C61.72 27.5486 63.5743 29.2528 65.8441 29.2528C68.1188 29.2528 69.973 27.5486 69.973 25.2405C69.973 22.9135 68.1188 21.2269 65.8441 21.2269ZM65.8441 27.6724C64.5987 27.6724 63.5272 26.6688 63.5272 25.2405C63.5272 23.7933 64.5987 22.8074 65.8441 22.8074C67.0895 22.8074 68.1659 23.7933 68.1659 25.2405C68.1659 26.6688 67.0895 27.6724 65.8441 27.6724ZM56.8458 21.2269C54.5711 21.2269 52.7217 22.9135 52.7217 25.2405C52.7217 27.5486 54.5711 29.2528 56.8458 29.2528C59.1192 29.2528 60.9699 27.5486 60.9699 25.2405C60.9699 22.9135 59.1192 21.2269 56.8458 21.2269ZM56.8458 27.6724C55.5991 27.6724 54.524 26.6688 54.524 25.2405C54.524 23.7933 55.5991 22.8074 56.8458 22.8074C58.0912 22.8074 59.1627 23.7933 59.1627 25.2405C59.1627 26.6688 58.0912 27.6724 56.8458 27.6724ZM46.1381 22.4571V24.1625H50.3093C50.1873 25.1155 49.8612 25.816 49.3611 26.3043C48.7522 26.894 47.8039 27.5486 46.1381 27.5486C43.5711 27.5486 41.561 25.5259 41.561 23.0197C41.561 20.5134 43.5711 18.4907 46.1381 18.4907C47.5261 18.4907 48.536 19.0203 49.2813 19.7067L50.5123 18.5049C49.4698 17.533 48.083 16.7865 46.1381 16.7865C42.618 16.7865 39.6597 19.5828 39.6597 23.0197C39.6597 26.4565 42.618 29.2528 46.1381 29.2528C48.0407 29.2528 49.4698 28.6443 50.5932 27.5026C51.7444 26.3786 52.1032 24.7982 52.1032 23.5221C52.1032 23.1258 52.0694 22.7614 52.009 22.4571H46.1381ZM89.923 23.7792C89.5836 22.8817 88.5362 21.2269 86.4029 21.2269C84.2889 21.2269 82.5289 22.8534 82.5289 25.2405C82.5289 27.4884 84.2708 29.2528 86.6059 29.2528C88.494 29.2528 89.5836 28.1289 90.0317 27.4743L88.6305 26.5626C88.163 27.2302 87.5264 27.6724 86.6059 27.6724C85.6914 27.6724 85.0355 27.2632 84.6151 26.4565L90.1127 24.2356L89.923 23.7792ZM84.3179 25.1155C84.2708 23.5681 85.5489 22.7755 86.4645 22.7755C87.1821 22.7755 87.7909 23.1258 87.9939 23.627L84.3179 25.1155ZM79.8496 29.0087H81.6567V17.2146H79.8496V29.0087ZM76.89 22.1209H76.8296C76.4237 21.6515 75.6494 21.2269 74.6685 21.2269C72.6101 21.2269 70.728 22.9913 70.728 25.2535C70.728 27.5026 72.6101 29.2528 74.6685 29.2528C75.6494 29.2528 76.4237 28.8247 76.8296 28.3412H76.89V28.9167C76.89 30.4511 76.0504 31.2755 74.6963 31.2755C73.5922 31.2755 72.9072 30.4971 72.6246 29.8426L71.053 30.483C71.506 31.5468 72.7055 32.856 74.6963 32.856C76.8151 32.856 78.6029 31.6388 78.6029 28.6773V21.4711H76.89V22.1209ZM74.8231 27.6724C73.5777 27.6724 72.5352 26.6546 72.5352 25.2535C72.5352 23.8393 73.5777 22.8074 74.8231 22.8074C76.0504 22.8074 77.018 23.8393 77.018 25.2535C77.018 26.6546 76.0504 27.6724 74.8231 27.6724ZM98.3838 17.2146H94.0616V29.0087H95.8639V24.5399H98.3838C100.385 24.5399 102.348 23.1258 102.348 20.8767C102.348 18.6287 100.381 17.2146 98.3838 17.2146ZM98.4309 22.8994H95.8639V18.8551H98.4309C99.7766 18.8551 100.545 19.9461 100.545 20.8767C100.545 21.7895 99.7766 22.8994 98.4309 22.8994ZM109.572 21.2045C108.27 21.2045 106.916 21.7659 106.359 23.0102L107.958 23.6648C108.303 23.0102 108.936 22.7979 109.605 22.7979C110.54 22.7979 111.488 23.3463 111.503 24.3146V24.4385C111.176 24.2545 110.478 23.9821 109.619 23.9821C107.897 23.9821 106.142 24.9079 106.142 26.6357C106.142 28.2161 107.552 29.234 109.139 29.234C110.351 29.234 111.021 28.6997 111.441 28.0782H111.503V28.9898H113.243V24.4656C113.243 22.3745 111.644 21.2045 109.572 21.2045ZM109.355 27.6677C108.765 27.6677 107.944 27.3823 107.944 26.6688C107.944 25.7559 108.968 25.4056 109.855 25.4056C110.649 25.4056 111.021 25.5766 111.503 25.8019C111.361 26.894 110.398 27.6677 109.355 27.6677ZM119.585 21.4628L117.514 26.5756H117.452L115.31 21.4628H113.367L116.585 28.6077L114.748 32.5835H116.632L121.591 21.4628H119.585ZM103.339 29.0087H105.146V17.2146H103.339V29.0087Z" fill="white"/>
<path d="M10.0824 7.81573C9.79856 8.10586 9.63428 8.55758 9.63428 9.14257V30.0088C9.63428 30.5938 9.79856 31.0455 10.0824 31.3356L10.1525 31.3993L22.1285 19.7113V19.4353L10.1525 7.74732L10.0824 7.81573Z" fill="url(#paint0_linear_3468_4421)"/>
<path d="M26.117 23.6093L22.1294 19.7113V19.4353L26.1218 15.5373L26.2112 15.5881L30.9393 18.2146C32.2886 18.96 32.2886 20.1866 30.9393 20.9367L26.2112 23.5585L26.117 23.6093Z" fill="url(#paint1_linear_3468_4421)"/>
<path d="M26.2134 23.5587L22.1316 19.5735L10.0854 31.3358C10.5336 31.7957 11.2644 31.8512 12.0955 31.3912L26.2134 23.5587Z" fill="url(#paint2_linear_3468_4421)"/>
<path d="M26.2134 15.5882L12.0955 7.75576C11.2644 7.30051 10.5336 7.35594 10.0854 7.81591L22.1316 19.5735L26.2134 15.5882Z" fill="url(#paint3_linear_3468_4421)"/>
<defs>
<linearGradient id="paint0_linear_3468_4421" x1="21.0652" y1="30.2261" x2="5.23503" y2="14.0123" gradientUnits="userSpaceOnUse">
<stop stop-color="#00A0FF"/>
<stop offset="0.0066" stop-color="#00A1FF"/>
<stop offset="0.2601" stop-color="#00BEFF"/>
<stop offset="0.5122" stop-color="#00D2FF"/>
<stop offset="0.7604" stop-color="#00DFFF"/>
<stop offset="1" stop-color="#00E3FF"/>
</linearGradient>
<linearGradient id="paint1_linear_3468_4421" x1="32.6963" y1="19.572" x2="9.3126" y2="19.572" gradientUnits="userSpaceOnUse">
<stop stop-color="#FFE000"/>
<stop offset="0.4087" stop-color="#FFBD00"/>
<stop offset="0.7754" stop-color="#FFA500"/>
<stop offset="1" stop-color="#FF9C00"/>
</linearGradient>
<linearGradient id="paint2_linear_3468_4421" x1="23.9938" y1="17.407" x2="2.52678" y2="-4.58015" gradientUnits="userSpaceOnUse">
<stop stop-color="#FF3A44"/>
<stop offset="1" stop-color="#C31162"/>
</linearGradient>
<linearGradient id="paint3_linear_3468_4421" x1="7.0532" y1="38.2779" x2="16.6392" y2="28.4597" gradientUnits="userSpaceOnUse">
<stop stop-color="#32A071"/>
<stop offset="0.0685" stop-color="#2DA771"/>
<stop offset="0.4762" stop-color="#15CF74"/>
<stop offset="0.8009" stop-color="#06E775"/>
<stop offset="1" stop-color="#00F076"/>
</linearGradient>
</defs>
</svg>
