<svg width="291" height="80" viewBox="0 0 291 80" fill="none" xmlns="http://www.w3.org/2000/svg">
<path d="M68.119 63V17.8654H80.7973V63H68.119ZM78.3884 46.962V36.439H100.575V46.962H78.3884ZM78.3884 28.3883V17.8654H101.526V28.3883H78.3884ZM121.213 63.7607C117.79 63.7607 114.726 63.0634 112.021 61.6688C109.359 60.2319 107.246 58.2668 105.682 55.7734C104.161 53.28 103.4 50.4697 103.4 47.3423C103.4 44.215 104.161 41.4258 105.682 38.9747C107.204 36.5236 109.296 34.6007 111.958 33.2061C114.663 31.7692 117.727 31.0508 121.15 31.0508C124.573 31.0508 127.616 31.7692 130.278 33.2061C132.941 34.6007 135.032 36.5236 136.554 38.9747C138.118 41.4258 138.899 44.215 138.899 47.3423C138.899 50.4697 138.139 53.28 136.617 55.7734C135.096 58.2668 133.004 60.2319 130.342 61.6688C127.679 63.0634 124.636 63.7607 121.213 63.7607ZM121.15 52.8574C122.206 52.8574 123.115 52.6461 123.876 52.2235C124.679 51.7586 125.291 51.1247 125.714 50.3217C126.137 49.4765 126.348 48.5045 126.348 47.4057C126.348 46.307 126.115 45.3561 125.651 44.5531C125.228 43.7079 124.636 43.074 123.876 42.6514C123.115 42.1865 122.206 41.9541 121.15 41.9541C120.136 41.9541 119.227 42.1865 118.424 42.6514C117.663 43.1163 117.05 43.7713 116.586 44.6165C116.163 45.4195 115.952 46.3703 115.952 47.4691C115.952 48.5257 116.163 49.4765 116.586 50.3217C117.05 51.1247 117.663 51.7586 118.424 52.2235C119.227 52.6461 120.136 52.8574 121.15 52.8574ZM158.48 63.7607C155.057 63.7607 151.993 63.0634 149.289 61.6688C146.626 60.2319 144.513 58.2668 142.949 55.7734C141.428 53.28 140.667 50.4697 140.667 47.3423C140.667 44.215 141.428 41.4258 142.949 38.9747C144.471 36.5236 146.563 34.6007 149.225 33.2061C151.93 31.7692 154.994 31.0508 158.417 31.0508C161.84 31.0508 164.883 31.7692 167.545 33.2061C170.208 34.6007 172.3 36.5236 173.821 38.9747C175.385 41.4258 176.167 44.215 176.167 47.3423C176.167 50.4697 175.406 53.28 173.884 55.7734C172.363 58.2668 170.271 60.2319 167.609 61.6688C164.946 63.0634 161.903 63.7607 158.48 63.7607ZM158.417 52.8574C159.473 52.8574 160.382 52.6461 161.143 52.2235C161.946 51.7586 162.559 51.1247 162.981 50.3217C163.404 49.4765 163.615 48.5045 163.615 47.4057C163.615 46.307 163.383 45.3561 162.918 44.5531C162.495 43.7079 161.903 43.074 161.143 42.6514C160.382 42.1865 159.473 41.9541 158.417 41.9541C157.403 41.9541 156.494 42.1865 155.691 42.6514C154.93 43.1163 154.318 43.7713 153.853 44.6165C153.43 45.4195 153.219 46.3703 153.219 47.4691C153.219 48.5257 153.43 49.4765 153.853 50.3217C154.318 51.1247 154.93 51.7586 155.691 52.2235C156.494 52.6461 157.403 52.8574 158.417 52.8574ZM193.529 63.6339C190.444 63.6339 187.739 62.9366 185.415 61.542C183.133 60.1474 181.337 58.2457 180.026 55.8368C178.759 53.3857 178.125 50.5753 178.125 47.4057C178.125 44.2362 178.759 41.4258 180.026 38.9747C181.337 36.5236 183.133 34.6218 185.415 33.2695C187.739 31.8749 190.444 31.1776 193.529 31.1776C195.388 31.1776 197.142 31.4945 198.79 32.1284C200.438 32.7201 201.833 33.5653 202.974 34.6641C204.157 35.7629 204.897 37.0307 205.193 38.4676V55.71C204.897 57.1469 204.157 58.4781 202.974 59.7037C201.833 60.887 200.438 61.8378 198.79 62.5563C197.142 63.2747 195.388 63.6339 193.529 63.6339ZM195.811 52.7306C196.867 52.7306 197.776 52.5193 198.537 52.0967C199.297 51.6318 199.889 50.9979 200.312 50.195C200.777 49.392 201.009 48.4623 201.009 47.4057C201.009 46.3492 200.798 45.4406 200.375 44.6799C199.952 43.877 199.34 43.243 198.537 42.7782C197.776 42.3133 196.889 42.0809 195.874 42.0809C194.86 42.0809 193.951 42.3133 193.148 42.7782C192.388 43.243 191.775 43.877 191.31 44.6799C190.845 45.4829 190.613 46.3915 190.613 47.4057C190.613 48.42 190.824 49.3286 191.247 50.1316C191.712 50.9345 192.345 51.5684 193.148 52.0333C193.951 52.4982 194.839 52.7306 195.811 52.7306ZM212.736 63H200.629V54.6323L202.34 47.0254L200.312 39.4818V16.5976H212.736V63ZM237.925 63.6339C236.066 63.6339 234.312 63.3381 232.664 62.7464C231.015 62.1125 229.621 61.2462 228.48 60.1474C227.339 59.0486 226.599 57.7808 226.261 56.3439V39.1015C226.599 37.6646 227.339 36.3545 228.48 35.1712C229.621 33.9457 231.015 32.9737 232.664 32.2552C234.312 31.5368 236.066 31.1776 237.925 31.1776C241.01 31.1776 243.694 31.8749 245.976 33.2695C248.3 34.6218 250.096 36.5236 251.364 38.9747C252.674 41.4258 253.329 44.2362 253.329 47.4057C253.329 50.5753 252.674 53.3857 251.364 55.8368C250.096 58.2457 248.3 60.1474 245.976 61.542C243.694 62.9366 241.01 63.6339 237.925 63.6339ZM235.58 52.7306C236.594 52.7306 237.502 52.4982 238.305 52.0333C239.108 51.5684 239.721 50.9345 240.144 50.1316C240.609 49.3286 240.841 48.42 240.841 47.4057C240.841 46.3492 240.609 45.4406 240.144 44.6799C239.721 43.877 239.108 43.243 238.305 42.7782C237.545 42.3133 236.657 42.0809 235.643 42.0809C234.629 42.0809 233.72 42.3133 232.917 42.7782C232.156 43.2008 231.544 43.8136 231.079 44.6165C230.656 45.4195 230.445 46.3492 230.445 47.4057C230.445 48.42 230.656 49.3286 231.079 50.1316C231.501 50.9345 232.093 51.5684 232.854 52.0333C233.657 52.4982 234.565 52.7306 235.58 52.7306ZM218.717 76.3122V31.8115H231.142V39.4818L229.114 47.0254L230.825 54.6323V76.3122H218.717ZM273.637 63.7607C270.002 63.7607 266.811 63.0845 264.064 61.7322C261.318 60.3376 259.162 58.4147 257.599 55.9636C256.077 53.4702 255.316 50.6176 255.316 47.4057C255.316 44.2362 256.056 41.4258 257.535 38.9747C259.057 36.5236 261.127 34.6007 263.748 33.2061C266.368 31.7692 269.326 31.0508 272.622 31.0508C275.876 31.0508 278.75 31.727 281.244 33.0793C283.737 34.3894 285.681 36.2277 287.076 38.5943C288.512 40.961 289.231 43.6657 289.231 46.7084C289.231 47.3423 289.189 48.0185 289.104 48.737C289.062 49.4131 288.935 50.2161 288.724 51.1458L260.578 51.336V43.729L284.096 43.5389L278.328 46.8986C278.328 45.2082 278.116 43.8347 277.694 42.7782C277.313 41.6794 276.722 40.8553 275.919 40.3059C275.116 39.7565 274.101 39.4818 272.876 39.4818C271.608 39.4818 270.509 39.7988 269.58 40.4327C268.65 41.0666 267.931 41.9752 267.424 43.1585C266.959 44.3418 266.727 45.7787 266.727 47.4691C266.727 49.2018 266.98 50.6598 267.488 51.8431C268.037 52.9842 268.819 53.8505 269.833 54.4422C270.847 55.0338 272.115 55.3297 273.637 55.3297C275.116 55.3297 276.405 55.0972 277.503 54.6323C278.644 54.1252 279.68 53.3434 280.61 52.2869L286.822 58.4358C285.258 60.2108 283.378 61.542 281.18 62.4295C278.983 63.317 276.468 63.7607 273.637 63.7607Z" fill="#151E3F"/>
<path opacity="0.35" d="M23 71.25C10.2982 71.25 0 60.9518 0 48.25V28.125C0 17.0103 9.01025 8 20.125 8H25.875C36.9897 8 46 17.0103 46 28.125V48.25C46 60.9518 35.7018 71.25 23 71.25Z" fill="#34558B"/>
<path d="M23 8V33.5041C23 36.9513 19.964 39.6767 16.5456 39.2225C4.28375 37.5895 0 31.3996 0 28.125C0 22.5475 2.2425 17.545 5.89375 13.8937C9.545 10.2425 14.5475 8 20.125 8H23Z" fill="#34558B"/>
</svg>